<?xml version="1.0" encoding="UTF-8" standalone="no"?>
<svg
   xmlns:dc="http://purl.org/dc/elements/1.1/"
   xmlns:cc="http://creativecommons.org/ns#"
   xmlns:rdf="http://www.w3.org/1999/02/22-rdf-syntax-ns#"
   xmlns:svg="http://www.w3.org/2000/svg"
   xmlns="http://www.w3.org/2000/svg"
   xmlns:sodipodi="http://sodipodi.sourceforge.net/DTD/sodipodi-0.dtd"
   xmlns:inkscape="http://www.inkscape.org/namespaces/inkscape"
   width="210mm"
   height="297mm"
   viewBox="0 0 210 297"
   version="1.1"
   id="svg8"
   inkscape:version="1.0.2 (e86c870879, 2021-01-15)"
   sodipodi:docname="logo.svg">
  <defs
     id="defs2" />
  <sodipodi:namedview
     id="base"
     pagecolor="#ffffff"
     bordercolor="#666666"
     borderopacity="1.0"
     inkscape:pageopacity="0.0"
     inkscape:pageshadow="2"
     inkscape:zoom="0.7"
     inkscape:cx="440.75087"
     inkscape:cy="431.27895"
     inkscape:document-units="mm"
     inkscape:current-layer="layer2"
     inkscape:document-rotation="0"
     showgrid="false"
     inkscape:window-width="1814"
     inkscape:window-height="928"
     inkscape:window-x="1947"
     inkscape:window-y="28"
     inkscape:window-maximized="0" />
  <metadata
     id="metadata5">
    <rdf:RDF>
      <cc:Work
         rdf:about="">
        <dc:format>image/svg+xml</dc:format>
        <dc:type
           rdf:resource="http://purl.org/dc/dcmitype/StillImage" />
        <dc:title></dc:title>
      </cc:Work>
    </rdf:RDF>
  </metadata>
  <g
     inkscape:groupmode="layer"
     id="layer2"
     inkscape:label="Layer 2">
    <ellipse
       style="fill:#2ad4ff;stroke-width:1.17831"
       id="path267"
       cx="99.301605"
       cy="108.60254"
       rx="120.45277"
       ry="112.07561" />
  </g>
  <g
     inkscape:label="Layer 1"
     inkscape:groupmode="layer"
     id="layer1">
    <rect
       style="fill:#999999;fill-rule:evenodd;stroke-width:0.33886"
       id="rect14"
       width="73.30735"
       height="64.834038"
       x="25.275682"
       y="81.541946" />
    <rect
       style="fill:#999999;stroke-width:0.323338"
       id="rect18"
       width="60.698318"
       height="57.972961"
       x="78.195488"
       y="82.592941" />
    <rect
       style="fill:#999999;stroke-width:0.423112"
       id="rect20"
       width="81.971924"
       height="63.138981"
       x="125.84688"
       y="83.373604"
       ry="0" />
    <rect
       style="fill:#b3b3b3;stroke-width:0.264583"
       id="rect26"
       width="80.540489"
       height="54.055363"
       x="34.809982"
       y="87.405838" />
    <rect
       style="fill:#b3b3b3;stroke-width:0.264583"
       id="rect28"
       width="58.903103"
       height="20.032612"
       x="143.12794"
       y="88.772202" />
    <rect
       style="fill:#b3b3b3;stroke-width:0.264583"
       id="rect30"
       width="9.9219666"
       height="12.9192"
       x="137.56313"
       y="122.50426" />
    <rect
       style="fill:#b3b3b3;stroke-width:0.264583"
       id="rect32"
       width="7.7982507"
       height="25.76371"
       x="152.30817"
       y="115.28983" />
    <rect
       style="fill:#b3b3b3;stroke-width:0.264583"
       id="rect34"
       width="4.4329147"
       height="26.510897"
       x="170.72047"
       y="113.20109" />
    <rect
       style="fill:#b3b3b3;stroke-width:0.264583"
       id="rect36"
       width="22.1141"
       height="6.9749689"
       x="184.9183"
       y="114.9205" />
    <rect
       style="fill:#b3b3b3;stroke-width:0.264583"
       id="rect38"
       width="16.190596"
       height="7.7494345"
       x="188.26941"
       y="129.77795" />
    <rect
       style="fill:#b3b3b3;stroke-width:0.264583"
       id="rect40"
       width="3.0578604"
       height="15.009224"
       x="126.22264"
       y="96.00412" />
    <rect
       style="fill:#999999;stroke-width:0.264583"
       id="rect42"
       width="1.8953258"
       height="34.385181"
       x="41.751049"
       y="101.60896"
       ry="2.5073104" />
    <rect
       style="fill:#999999;stroke-width:0.264583"
       id="rect44"
       width="2.4400504"
       height="48.141727"
       x="49.07766"
       y="91.451752"
       ry="1.2200252"
       rx="0" />
    <rect
       style="fill:#999999;stroke-width:0.264583"
       id="rect46"
       width="2.1497395"
       height="45.450817"
       x="60.83165"
       y="94.428673"
       ry="1.0748698" />
    <rect
       style="fill:#999999;stroke-width:0.264583"
       id="rect48"
       width="40.876888"
       height="2.8659656"
       x="73.132759"
       y="95.491798"
       ry="1.0748698" />
    <rect
       style="fill:#999999;stroke-width:0.264583"
       id="rect50"
       width="38.340317"
       height="2.1437528"
       x="69.296806"
       y="108.8524"
       ry="1.0718764" />
    <rect
       style="fill:#999999;stroke-width:0.264583"
       id="rect52"
       width="43.881596"
       height="2.2601287"
       x="68.481522"
       y="120.09933"
       ry="1.0718774" />
    <rect
       style="fill:#999999;stroke-width:0.264583"
       id="rect57"
       width="36.311924"
       height="1.4748083"
       x="75.846603"
       y="130.50853"
       ry="0.73740417" />
    <rect
       style="fill:#999999;stroke-width:0.264583"
       id="rect62"
       width="2.0964944"
       height="15.994374"
       x="151.21622"
       y="90.57196"
       ry="0.73740435" />
    <rect
       style="fill:#999999;stroke-width:0.264583"
       id="rect67"
       width="2.8504167"
       height="8.8062181"
       x="184.10181"
       y="94.531433"
       ry="0.73740435" />
    <rect
       style="fill:#999999;stroke-width:0.264583"
       id="rect69"
       width="0.32777622"
       height="11.378609"
       x="173.46126"
       y="92.09771"
       ry="0.16388811" />
    <rect
       style="fill:#ffff00;stroke-width:0.193929"
       id="rect71"
       width="1.7745686"
       height="53.391018"
       x="-227.7993"
       y="86.565536"
       ry="0.13563645"
       transform="matrix(-0.43729012,-0.89932049,0.62957997,-0.77693569,0,0)" />
    <rect
       style="fill:#ffff00;stroke-width:0.101793"
       id="rect71-5"
       width="0.93148285"
       height="28.024185"
       x="22.867805"
       y="182.71948"
       ry="0.071193643"
       transform="matrix(0.89935388,-0.43722146,0.77699548,0.62950618,0,0)" />
    <rect
       style="fill:#ffff00;stroke-width:0.575362"
       id="rect115"
       width="6.03829"
       height="49.640656"
       x="42.271587"
       y="90.677734"
       ry="0.078750148" />
    <rect
       style="fill:#ffff00;stroke-width:0.456552"
       id="rect115-2"
       width="3.7161531"
       height="50.787468"
       x="87.668228"
       y="90.923607"
       ry="0.080569454" />
    <rect
       style="fill:#ffff00;stroke-width:0.478319"
       id="rect115-1"
       width="4.1500793"
       height="49.9174"
       x="71.696526"
       y="91.34819"
       ry="0.079189166" />
    <rect
       style="fill:#ffff00;stroke-width:0.468004"
       id="rect115-4"
       width="3.9882975"
       height="49.726051"
       x="60.626862"
       y="91.172989"
       ry="0.078885615" />
    <rect
       style="fill:#ffff00;stroke-width:0.271904"
       id="rect155"
       width="45.572056"
       height="2.7126861"
       x="45.078053"
       y="111.67547"
       ry="0.071193546" />
    <rect
       style="fill:#ffff00;stroke-width:0.163319"
       id="rect115-2-9"
       width="1.6840304"
       height="14.341426"
       x="122.13072"
       y="90.275078"
       ry="0.0227513" />
    <rect
       style="fill:#ffff00;stroke-width:0.163319"
       id="rect115-2-9-7"
       width="1.6840304"
       height="14.341426"
       x="120.99818"
       y="121.12528"
       ry="0.0227513" />
    <rect
       style="fill:#ffff00;stroke-width:0.134239"
       id="rect115-2-9-7-6"
       width="10.497174"
       height="1.5543598"
       x="122.20087"
       y="-129.5179"
       ry="0.002465843"
       transform="scale(1,-1)" />
    <rect
       style="fill:#ffff00;stroke-width:0.134239"
       id="rect115-2-9-7-6-8"
       width="10.497174"
       height="1.5543598"
       x="42.271587"
       y="-85.319527"
       ry="0.002465843"
       transform="scale(1,-1)" />
    <path
       style="fill:#333333;stroke-width:0.264583"
       id="path243"
       d="m 90.962299,199.88747 c -1.742263,0.67372 -3.486624,1.34472 -5.212487,2.05943 -4.222293,2.04726 -8.262425,4.44491 -12.439539,6.58325 -2.88676,1.45098 -5.789205,2.86729 -8.627761,4.41143 -1.829655,1.06141 -3.659306,2.12282 -5.488961,3.18422 -0.235725,0.15647 -0.466606,0.3205 -0.707178,0.46941 -0.404797,0.25057 -0.83007,0.46683 -1.236761,0.71431 -0.177062,0.10774 -0.704995,0.43597 -0.525121,0.33299 1.392312,-0.79711 2.775275,-1.61044 4.162912,-2.41566 -12.679654,7.31981 -2.334223,1.35776 -1.132443,0.62954 0.181464,-0.10996 -0.387337,0.17339 -0.582094,0.25759 -0.649198,0.28069 -1.298509,0.53998 -1.966569,0.77197 -1.875567,0.54974 -3.802861,0.86549 -5.739876,1.09751 -2.207916,0.23077 -4.430022,0.27142 -6.648074,0.29212 -1.724506,0.008 -3.444835,0.10268 -5.126887,-0.32361 -1.321699,-0.42761 -0.652335,-0.18232 -2.004917,-0.74449 0,0 -4.515964,3.00407 -4.515964,3.00407 v 0 c 1.344592,0.62034 0.684033,0.34081 1.978454,0.84614 0.251539,0.0838 0.497731,0.18585 0.754615,0.2515 1.473759,0.37665 3.032506,0.0761 4.528799,0.15882 2.228017,-0.0184 4.458134,-0.0329 6.678568,-0.24294 1.929844,-0.21502 3.851772,-0.48535 5.737269,-0.96117 0.688616,-0.20349 1.313403,-0.46468 1.976856,-0.73192 0.201306,-0.0811 0.42264,-0.11495 0.613206,-0.21879 2.137831,-1.16492 10.672286,-6.10155 1.150726,-0.60974 1.765914,-1.0207 3.534013,-2.03763 5.297736,-3.06211 0.576911,-0.3351 1.149056,-0.68582 1.713746,-1.04103 0.230288,-0.14486 0.925311,-0.57207 0.687642,-0.43967 -1.285145,0.71592 -2.554089,1.46054 -3.831133,2.19081 2.902469,-1.64228 5.895195,-3.1118 8.865566,-4.62611 4.089418,-2.08159 8.053411,-4.4015 12.174519,-6.42024 1.655617,-0.71822 3.362576,-1.3089 5.03301,-1.98857 0,0 4.432141,-3.42906 4.432141,-3.42906 z" />
    <path
       style="fill:#1a1a1a;stroke-width:0.264583"
       id="path245"
       d="M 26.84186,92.904997 C 22.659194,91.565946 18.465112,90.223016 14.428007,88.480346 11.136772,87.059639 10.429395,86.592912 7.3227598,84.91684 2.8830518,82.203876 -1.6753432,79.285115 -4.8417337,75.054115 -5.2825379,74.465102 -5.6380191,73.816818 -6.036162,73.198169 c -0.3833741,-0.788535 -0.8034078,-1.560274 -1.1501229,-2.3656 -0.7688431,-1.785816 -1.4961488,-4.003027 -2.064145,-5.848469 -0.733304,-2.382533 -1.2365661,-4.191193 -1.7561471,-6.633781 -0.240664,-1.131377 -0.424418,-2.274115 -0.636627,-3.411173 -0.914665,-5.503439 -1.125012,-11.08248 -1.216969,-16.649422 -0.01226,-2.886249 -0.121063,-5.824458 0.565478,-8.654563 0.142672,-0.588134 0.331258,-1.164172 0.496888,-1.746258 1.407429,-4.550978 4.0277005,-8.483038 6.8359956,-12.269858 3.696628,-4.1881 8.0066993,-7.7660509 12.1399881,-11.506676 1.6941011,-1.5530152 0.8799531,-0.8001199 2.4437731,-2.2572485 0,0 -4.9406971,2.0288218 -4.9406971,2.0288218 v 0 C 3.1819352,5.3080647 3.9611257,4.5721695 2.3427247,6.0906149 -1.7230631,9.8648775 -5.9806786,13.46011 -9.643048,17.640711 c -1.138051,1.550224 -2.006147,2.676738 -3.035713,4.301426 -1.624605,2.563678 -2.873698,5.342744 -3.876398,8.202289 -0.185051,0.61423 -0.407841,1.218335 -0.555154,1.842693 -0.109837,0.465527 -0.156691,0.944002 -0.214374,1.41882 -0.292942,2.411341 -0.245069,4.834753 -0.166446,7.257495 0.17693,5.55345 0.634881,11.098172 1.509707,16.588361 0.215358,1.144408 0.403934,2.294181 0.646075,3.433223 0.505835,2.379461 1.043608,4.358756 1.730442,6.689185 0.552681,1.875245 1.256761,4.138795 1.987216,5.96547 0.335863,0.839907 0.738365,1.651604 1.107548,2.477405 0.425875,0.629529 0.8066252,1.292066 1.2776251,1.888583 3.3226215,4.208071 8.0141131,7.09192 12.5143509,9.854054 2.9636707,1.571837 4.0573108,2.217645 7.159118,3.589875 3.89242,1.721995 7.943657,3.061819 11.827674,4.80324 0,0 4.573237,-3.047833 4.573237,-3.047833 z" />
    <path
       style="fill:#333333;stroke-width:0.264583"
       id="path247"
       d="m 78.124668,78.351334 c -3.402851,-1.59752 -4.333396,-4.646843 -5.472266,-7.972152 -2.153859,-6.987985 -2.810237,-14.323145 -2.679208,-21.609489 0.03191,-1.774796 0.159827,-3.546568 0.239742,-5.319853 0.35437,-6.376535 1.393425,-12.698841 3.400383,-18.769049 0.816459,-2.469442 1.691497,-4.509339 2.667021,-6.903589 0.874247,-1.746046 1.738706,-3.662074 2.894962,-5.256497 2.161969,-2.9812538 5.105487,-5.2042282 8.097583,-7.2711759 -1.356828,0.9684609 5.082908,-3.4591478 3.925713,-2.4415094 -1.577072,1.3868789 -4.352499,2.3578179 -0.665384,0.8863174 0,0 4.122065,-3.23698915 4.122065,-3.23698915 v 0 C 94.03123,0.69804226 93.379403,0.87639688 92.783127,1.1794309 89.25611,2.9719018 85.765049,4.8701525 82.510454,7.1267666 79.539805,9.2560732 76.664308,11.519212 74.562133,14.56831 c -1.154919,1.675153 -1.883577,3.440266 -2.7418,5.273438 -0.962933,2.504153 -1.691492,4.280407 -2.491177,6.872696 -1.879777,6.09354 -2.812454,12.407842 -3.148544,18.768073 -0.0736,1.778236 -0.185499,3.555297 -0.22079,5.334704 -0.146634,7.393236 0.28067,14.851324 2.228671,22.015452 0.519559,1.698636 0.852207,3.080803 1.650256,4.657101 0.85036,1.679615 2.13583,2.923103 3.642257,4.005355 0,0 4.643662,-3.143795 4.643662,-3.143795 z" />
    <path
       style="fill:#333333;stroke-width:0.264583"
       id="path249"
       d="m 157.09094,89.900224 c 0.64723,-0.6272 1.05491,-1.469601 1.47424,-2.253546 0.2856,-0.533918 0.59872,-1.055513 0.83735,-1.612016 0.83909,-1.956832 1.16685,-3.360465 1.76792,-5.439886 1.10057,-4.305099 1.79731,-8.704712 2.05047,-13.140875 0.12525,-2.194544 0.11148,-3.591518 0.12975,-5.771859 -0.11475,-3.429987 -0.28926,-6.885231 -1.16315,-10.222886 -0.73917,-2.823115 -1.20876,-3.739825 -2.31298,-6.514947 -0.48281,-1.097068 -0.94852,-2.20182 -1.44843,-3.291202 -1.16645,-2.541863 -1.70683,-3.662947 -3.19793,-6.040572 -1.93667,-3.088116 -4.18296,-5.97679 -6.35124,-8.901954 -3.42671,-4.535 -7.0349,-8.940418 -10.94532,-13.067402 -2.69955,-2.435262 -5.56494,-4.6694456 -8.47958,-6.8379172 0,0 -4.29883,2.722322 -4.29883,2.722322 v 0 c 2.89375,2.1375822 5.77189,4.3053172 8.36969,6.8046312 3.95669,4.075214 7.70264,8.352892 11.13074,12.885349 1.37298,1.800608 3.02672,3.926236 4.307,5.785588 2.65578,3.856987 4.88281,7.976452 6.64975,12.314361 0.41929,1.136145 0.8909,2.254327 1.25787,3.408434 1.36299,4.286549 1.80824,8.782611 1.96629,13.255308 0.004,2.947842 0.0204,5.902047 -0.28743,8.838879 -0.35072,3.346231 -1.01056,6.661232 -1.8891,9.906648 -0.32689,1.000427 -0.6086,2.016768 -0.98069,3.001278 -0.85791,2.269905 -2.03005,4.596598 -3.77333,6.32076 0,0 5.18694,-2.148496 5.18694,-2.148496 z" />
    <path
       style="fill:#333333;stroke-width:0.264583"
       id="path251"
       d="m 195.85686,96.626472 c 2.26082,-3.208681 3.88696,-6.879301 5.17776,-10.572723 0.5143,-1.471602 0.93168,-2.975311 1.39752,-4.462965 1.57544,-5.770835 2.83529,-11.653565 3.38208,-17.619004 0.24849,-2.71096 0.27188,-4.820536 0.35144,-7.51777 -0.041,-3.115775 -0.003,-3.101118 -0.17553,-6.054079 -0.0448,-0.768646 -0.0371,-1.544614 -0.16419,-2.304005 -0.42184,-2.521088 -1.47994,-4.907989 -2.47663,-7.23673 -0.42028,-0.823621 -0.7912,-1.674355 -1.26084,-2.470864 -0.69412,-1.17724 -3.62423,-5.36988 -4.2257,-6.234676 -2.49926,-3.593523 -5.04577,-7.143085 -7.65241,-10.659274 -3.27564,-4.400771 -6.71367,-8.681226 -10.35799,-12.7821075 -1.97547,-1.8948826 -3.90673,-3.8334563 -6.0577,-5.5307121 -2.34877,-2.0209645 -5.28094,-2.98317244 -8.13494,-4.0464416 -0.56436,-0.187436 -1.12873,-0.3748719 -1.69309,-0.5623079 0,0 -4.37157,2.970033 -4.37157,2.970033 v 0 c 0.5619,0.1802352 1.1238,0.3604703 1.68571,0.5407054 2.79059,1.0436509 5.63088,2.0400651 7.95668,3.9708453 2.16808,1.6440179 4.0271,3.6373257 6.09353,5.4043494 3.81208,3.962067 7.44363,8.095425 10.7879,12.463056 1.90186,2.519008 3.29053,4.3131 5.10915,6.908019 2.23397,3.187547 2.73678,4.037142 4.74954,7.288525 0.57207,0.924105 1.17467,1.830657 1.70293,2.780479 0.44435,0.798936 0.8079,1.640203 1.21185,2.460305 0.6711,1.612747 1.31009,3.011525 1.78989,4.693703 0.98177,3.442055 0.99449,7.072876 1.10852,10.619401 -0.0286,2.881358 0.007,4.490154 -0.24658,7.412144 -0.51364,5.919009 -1.69092,11.77998 -3.32156,17.486809 -0.50536,1.492724 -0.95206,3.006606 -1.51608,4.478171 -1.48899,3.884875 -3.47738,7.551708 -5.95159,10.893229 0,0 5.1019,-2.316115 5.1019,-2.316115 z" />
    <path
       style="fill:#333333;stroke-width:0.264583"
       id="path253"
       d="m 41.343185,217.75254 c -0.801941,-0.60127 -1.679294,-1.2349 -1.941581,-2.24825 0.03629,-1.01077 0.434856,-1.20402 1.141571,-1.83297 -1.338873,0.78537 2.481202,-1.75163 1.100646,-0.96525 -8.241385,4.69445 -5.389782,2.61848 -3.513498,2.39399 1.203243,0.0838 1.161836,1.34215 1.276866,2.28713 0.06873,0.95383 0.04245,0.47952 0.07942,1.4229 0,0 4.902777,-2.52752 4.902777,-2.52752 v 0 c -0.05383,-0.96409 -0.01961,-0.47776 -0.103505,-1.45894 -0.157721,-1.20624 -0.273534,-2.63884 -1.654477,-3.00116 -2.849832,-0.23775 -5.208976,2.13301 -7.233941,3.96802 -0.707239,0.73046 -1.082842,1.35397 -0.889399,2.40222 0.39933,1.07664 1.239411,1.80386 2.086213,2.54516 0,0 4.748905,-2.98533 4.748905,-2.98533 z" />
    <path
       style="fill:#333333;stroke-width:0.264583"
       id="path259"
       d="m 47.482667,77.64455 c -1.014638,-0.764376 -1.477838,-1.034793 -2.34578,-2.083956 -3.663865,-4.428866 -4.426789,-10.713929 -5.50236,-16.108556 -0.140036,-3.031291 -0.511206,-6.060715 -0.42011,-9.093869 0.459507,-15.299584 5.477639,-30.132083 12.445351,-43.6318279 1.694543,-3.2831261 3.677952,-6.40891767 5.516928,-9.6133765 2.239094,-2.8327585 4.478189,-5.6655168 6.717284,-8.4982756 0,0 -3.058359,1.309846 -3.058359,1.309846 v 0 c -2.21901,2.8420168 -4.43802,5.6840334 -6.657033,8.5260499 -4.553106,8.1265035 -6.752759,11.4729801 -10.302467,20.2522811 -4.293883,10.619817 -7.214497,21.873932 -7.929917,33.330713 -0.194374,3.112707 0.02352,6.237494 0.03529,9.356241 0.764995,5.689044 1.090229,12.095051 4.648575,16.912683 0.671209,0.908745 1.400535,1.556109 2.199553,2.322634 0,0 4.653042,-2.980587 4.653042,-2.980587 z" />
    <path
       style="fill:#333333;stroke-width:0.264583"
       id="path261"
       d="m 109.06548,78.71774 c 1.95758,-0.02392 4.02794,-0.348547 5.78181,-1.282542 2.60572,-1.387636 5.20419,-2.820413 7.60687,-4.535773 2.63984,-1.884677 6.47406,-6.547159 8.45988,-8.79634 1.38226,-2.009807 3.00287,-3.875029 4.1468,-6.029423 2.61254,-4.92026 3.70097,-9.10255 3.19309,-14.733037 -0.2619,-2.903489 -1.29744,-5.684369 -1.94615,-8.526555 0,0 -3.33341,1.788412 -3.33341,1.788412 v 0 c 0.57367,2.840159 1.52295,5.629738 1.72102,8.520477 0.37852,5.524429 -0.74561,9.77891 -3.37451,14.577441 -1.18326,2.159815 -2.84854,4.018142 -4.27282,6.027214 -1.5652,1.697085 -3.04797,3.47409 -4.69561,5.091255 -1.38359,1.357995 -3.01274,2.451335 -4.38469,3.821086 -0.224,0.223636 1.18864,-0.43592 0.88974,-0.331748 -1.75548,0.61183 -3.41979,1.392005 -5.3236,1.163029 0,0 -4.46842,3.246504 -4.46842,3.246504 z" />
    <path
       style="fill:#333333;stroke-width:0.264583"
       id="path263"
       d="m 179.37639,79.216617 c 0.32422,-0.53734 0.79621,-0.980334 1.09862,-1.530819 2.14405,-3.902855 2.84967,-8.836898 3.61585,-13.154416 0.37766,-2.770838 0.93764,-6.166876 0.9258,-8.973637 -0.0126,-2.974822 -0.50726,-6.548461 -1.38869,-9.390965 -1.27218,-4.102616 -2.53086,-5.946764 -4.59222,-9.726168 -1.01614,-1.579401 -2.00263,-3.178275 -3.04843,-4.738203 -1.01349,-1.511742 -2.00959,-3.039472 -3.12829,-4.47511 -2.10357,-2.699531 -5.78097,-6.652984 -8.19645,-9.047615 -1.46195,-1.449332 -3.00165,-2.818075 -4.50248,-4.227113 0,0 -3.6895,2.277256 -3.6895,2.277256 v 0 c 1.49664,1.401888 3.03619,2.759328 4.48993,4.205663 5.48857,5.460628 10.24999,11.565372 14.19441,18.229697 2.08325,3.945339 3.13092,5.437711 4.3878,9.693214 0.8673,2.936499 1.29997,6.235374 1.284,9.295167 -0.0149,2.866191 -0.58208,6.120719 -0.98917,8.946059 -0.90769,4.547463 -1.71398,9.270516 -4.32038,13.215115 -0.3418,0.517287 -0.88851,1.079494 -1.32828,1.550596 0,0 5.18748,-2.148721 5.18748,-2.148721 z" />
  </g>
</svg>
